<svg width="181" height="19" viewBox="0 0 181 19" fill="none" xmlns="http://www.w3.org/2000/svg">
<path d="M0.68 18V0.719999H3.572V8.736L10.472 0.719999H14.024L6.596 9.192L14.528 18H10.856L3.572 9.936V18H0.68ZM16.2191 18V0.719999H23.3591C23.5271 0.719999 23.7431 0.727999 24.0071 0.743999C24.2711 0.751999 24.5151 0.776 24.7391 0.816C25.7391 0.967999 26.5631 1.3 27.2111 1.812C27.8671 2.324 28.3511 2.972 28.6631 3.756C28.9831 4.532 29.1431 5.396 29.1431 6.348C29.1431 7.756 28.7871 8.968 28.0751 9.984C27.3631 10.992 26.2711 11.616 24.7991 11.856L23.5631 11.964H19.1111V18H16.2191ZM26.1431 18L22.7351 10.968L25.6751 10.32L29.4191 18H26.1431ZM19.1111 9.264H23.2391C23.3991 9.264 23.5791 9.256 23.7791 9.24C23.9791 9.224 24.1631 9.192 24.3311 9.144C24.8111 9.024 25.1871 8.812 25.4591 8.508C25.7391 8.204 25.9351 7.86 26.0471 7.476C26.1671 7.092 26.2271 6.716 26.2271 6.348C26.2271 5.98 26.1671 5.604 26.0471 5.22C25.9351 4.828 25.7391 4.48 25.4591 4.176C25.1871 3.872 24.8111 3.66 24.3311 3.54C24.1631 3.492 23.9791 3.464 23.7791 3.456C23.5791 3.44 23.3991 3.432 23.2391 3.432H19.1111V9.264ZM39.3708 18.36C37.6428 18.36 36.1628 17.984 34.9308 17.232C33.6988 16.472 32.7508 15.416 32.0868 14.064C31.4308 12.712 31.1028 11.144 31.1028 9.36C31.1028 7.576 31.4308 6.008 32.0868 4.656C32.7508 3.304 33.6988 2.252 34.9308 1.5C36.1628 0.739999 37.6428 0.36 39.3708 0.36C41.0988 0.36 42.5788 0.739999 43.8108 1.5C45.0508 2.252 45.9988 3.304 46.6548 4.656C47.3188 6.008 47.6508 7.576 47.6508 9.36C47.6508 11.144 47.3188 12.712 46.6548 14.064C45.9988 15.416 45.0508 16.472 43.8108 17.232C42.5788 17.984 41.0988 18.36 39.3708 18.36ZM39.3708 15.636C40.5308 15.644 41.4948 15.388 42.2628 14.868C43.0388 14.348 43.6188 13.616 44.0028 12.672C44.3948 11.728 44.5908 10.624 44.5908 9.36C44.5908 8.096 44.3948 7 44.0028 6.072C43.6188 5.136 43.0388 4.408 42.2628 3.888C41.4948 3.368 40.5308 3.1 39.3708 3.084C38.2108 3.076 37.2468 3.332 36.4788 3.852C35.7108 4.372 35.1308 5.104 34.7388 6.048C34.3548 6.992 34.1628 8.096 34.1628 9.36C34.1628 10.624 34.3548 11.724 34.7388 12.66C35.1228 13.588 35.6988 14.312 36.4668 14.832C37.2428 15.352 38.2108 15.62 39.3708 15.636ZM50.0394 18V0.719999H52.9314V8.736L59.8314 0.719999H63.3834L55.9554 9.192L63.8874 18H60.2154L52.9314 9.936V18H50.0394ZM65.5784 18V0.719999H76.7384V3.432H68.4704V7.692H75.2984V10.404H68.4704V15.288H76.7384V18H65.5784ZM79.6175 18V0.719999H82.5455L90.5615 12.9V0.719999H93.4895V18H90.5615L82.5455 5.82V18H79.6175ZM100.996 18V3.432H95.4041V0.719999H109.48V3.432H103.888V18H100.996ZM109.488 18V15.036H112.452V18H109.488ZM116.297 18V0.719999H121.805C121.949 0.719999 122.233 0.724 122.657 0.732C123.089 0.739999 123.505 0.767999 123.905 0.816C125.273 0.991999 126.429 1.48 127.373 2.28C128.325 3.072 129.045 4.084 129.533 5.316C130.021 6.548 130.265 7.896 130.265 9.36C130.265 10.824 130.021 12.172 129.533 13.404C129.045 14.636 128.325 15.652 127.373 16.452C126.429 17.244 125.273 17.728 123.905 17.904C123.513 17.952 123.101 17.98 122.669 17.988C122.237 17.996 121.949 18 121.805 18H116.297ZM119.237 15.276H121.805C122.045 15.276 122.349 15.268 122.717 15.252C123.093 15.236 123.425 15.2 123.713 15.144C124.529 14.992 125.193 14.628 125.705 14.052C126.217 13.476 126.593 12.776 126.833 11.952C127.081 11.128 127.205 10.264 127.205 9.36C127.205 8.424 127.081 7.544 126.833 6.72C126.585 5.896 126.201 5.204 125.681 4.644C125.169 4.084 124.513 3.728 123.713 3.576C123.425 3.512 123.093 3.476 122.717 3.468C122.349 3.452 122.045 3.444 121.805 3.444H119.237V15.276ZM139.498 18.36C138.234 18.36 137.094 18.14 136.078 17.7C135.07 17.26 134.238 16.632 133.582 15.816C132.934 14.992 132.522 14.016 132.346 12.888L135.346 12.432C135.602 13.456 136.126 14.248 136.918 14.808C137.718 15.368 138.638 15.648 139.678 15.648C140.294 15.648 140.874 15.552 141.418 15.36C141.962 15.168 142.402 14.888 142.738 14.52C143.082 14.152 143.254 13.7 143.254 13.164C143.254 12.924 143.214 12.704 143.134 12.504C143.054 12.296 142.934 12.112 142.774 11.952C142.622 11.792 142.422 11.648 142.174 11.52C141.934 11.384 141.654 11.268 141.334 11.172L136.87 9.852C136.486 9.74 136.07 9.592 135.622 9.408C135.182 9.216 134.762 8.956 134.362 8.628C133.97 8.292 133.646 7.868 133.39 7.356C133.142 6.836 133.018 6.196 133.018 5.436C133.018 4.324 133.298 3.392 133.858 2.64C134.426 1.88 135.186 1.312 136.138 0.935999C137.098 0.559999 138.162 0.375999 139.33 0.383999C140.514 0.391999 141.57 0.595999 142.498 0.995999C143.426 1.388 144.202 1.96 144.826 2.712C145.45 3.464 145.89 4.372 146.146 5.436L143.038 5.976C142.91 5.368 142.662 4.852 142.294 4.428C141.934 3.996 141.49 3.668 140.962 3.444C140.442 3.22 139.886 3.1 139.294 3.084C138.718 3.076 138.182 3.164 137.686 3.348C137.198 3.524 136.802 3.78 136.498 4.116C136.202 4.452 136.054 4.844 136.054 5.292C136.054 5.716 136.182 6.064 136.438 6.336C136.694 6.6 137.01 6.812 137.386 6.972C137.77 7.124 138.158 7.252 138.55 7.356L141.646 8.22C142.07 8.332 142.546 8.484 143.074 8.676C143.602 8.868 144.11 9.136 144.598 9.48C145.086 9.824 145.486 10.276 145.798 10.836C146.118 11.396 146.278 12.108 146.278 12.972C146.278 13.868 146.09 14.656 145.714 15.336C145.346 16.008 144.846 16.568 144.214 17.016C143.582 17.464 142.858 17.8 142.042 18.024C141.234 18.248 140.386 18.36 139.498 18.36ZM156.003 18.36C154.883 18.36 153.831 18.164 152.847 17.772C151.871 17.372 151.011 16.788 150.267 16.02C149.531 15.252 148.955 14.312 148.539 13.2C148.123 12.08 147.915 10.8 147.915 9.36C147.915 7.472 148.267 5.86 148.971 4.524C149.675 3.18 150.639 2.152 151.863 1.44C153.087 0.719999 154.467 0.36 156.003 0.36C158.131 0.36 159.815 0.855999 161.055 1.848C162.303 2.832 163.147 4.216 163.587 6L160.635 6.468C160.307 5.444 159.771 4.628 159.027 4.02C158.283 3.404 157.335 3.096 156.183 3.096C155.023 3.08 154.059 3.332 153.291 3.852C152.523 4.372 151.943 5.104 151.551 6.048C151.167 6.992 150.975 8.096 150.975 9.36C150.975 10.624 151.167 11.724 151.551 12.66C151.935 13.588 152.511 14.312 153.279 14.832C154.055 15.352 155.023 15.62 156.183 15.636C157.055 15.644 157.819 15.488 158.475 15.168C159.131 14.84 159.667 14.348 160.083 13.692C160.499 13.028 160.779 12.2 160.923 11.208H157.875V8.94H163.995C164.011 9.068 164.023 9.256 164.031 9.504C164.039 9.752 164.043 9.9 164.043 9.948C164.043 11.58 163.719 13.032 163.071 14.304C162.431 15.568 161.511 16.56 160.311 17.28C159.111 18 157.675 18.36 156.003 18.36ZM166.453 18V0.719999H169.381L177.397 12.9V0.719999H180.325V18H177.397L169.381 5.82V18H166.453Z" fill="black" fill-opacity="0.8"/>
</svg>
